<svg xmlns="http://www.w3.org/2000/svg" xmlns:xlink="http://www.w3.org/1999/xlink" width="361.056" height="141.911" viewBox="0 0 361.056 141.911">
  <defs>
    <clipPath id="clip-path">
      <path id="Path_7" data-name="Path 7" d="M26.627,36.806H.665V-26.361h9.528V27.328H26.627ZM48.254-27.167a14.543,14.543,0,0,1,10.713,4.436,14.609,14.609,0,0,1,4.411,10.687V22.438a14.543,14.543,0,0,1-4.436,10.713,14.609,14.609,0,0,1-10.687,4.411,14.46,14.46,0,0,1-10.687-4.436,14.652,14.652,0,0,1-4.386-10.687V-12.044a14.543,14.543,0,0,1,4.436-10.713A14.55,14.55,0,0,1,48.254-27.167Zm5.192,14.922A5.251,5.251,0,0,0,51.859-16.1,5.25,5.25,0,0,0,48-17.69,5.334,5.334,0,0,0,44.121-16.1a5.209,5.209,0,0,0-1.613,3.857V22.338a5.209,5.209,0,0,0,1.613,3.857A5.334,5.334,0,0,0,48,27.782a5.422,5.422,0,0,0,5.445-5.445ZM102.7,21.077A17.767,17.767,0,0,1,99.272,32.37a12.348,12.348,0,0,1-6.554,4.487,17.867,17.867,0,0,1-5.293.706,14.982,14.982,0,0,1-9.276-2.773,15.509,15.509,0,0,1-4.865-6.176,24.916,24.916,0,0,1-2.092-8.948l9.074-.655q.6,5.495,2.924,7.965a4.887,4.887,0,0,0,3.932,1.764,5.911,5.911,0,0,0,4.991-3.075,7.633,7.633,0,0,0,.958-4.184q0-3.932-3.579-7.814L81.022,5.651a36.147,36.147,0,0,1-6.7-8.217A18.988,18.988,0,0,1,72.2-11.439q0-8.621,5.8-13.057a14.416,14.416,0,0,1,8.873-2.672A16.126,16.126,0,0,1,95.592-24.9a13.1,13.1,0,0,1,4.562,4.94,18.284,18.284,0,0,1,2.092,7.31l-9.125,1.664A11,11,0,0,0,90.9-17.034,4.657,4.657,0,0,0,87.122-18.6a4.355,4.355,0,0,0-3.983,2.319,8.941,8.941,0,0,0-1.109,4.638q0,4.336,3.731,8.822A31.52,31.52,0,0,0,90,1.215Q93.323,3.988,94.382,5.1a32.328,32.328,0,0,1,5.445,6.957,26.656,26.656,0,0,1,1.462,2.974A17.32,17.32,0,0,1,102.7,21.077Zm17.745,1.21-2.319,14.519h-9.931l10.738-63.167H132.04l10.587,63.167h-9.982l-2.269-14.519Zm4.991-34.18-3.529,24.9h7.058ZM161.38-26.411l12.6,42.447V-26.411h9.528V36.806H173.277L160.17-3.675V36.806h-9.528V-26.411ZM207,37.613a14.543,14.543,0,0,1-10.713-4.436,14.55,14.55,0,0,1-4.411-10.637V-11.943a14.543,14.543,0,0,1,4.436-10.713A14.609,14.609,0,0,1,207-27.066,14.46,14.46,0,0,1,217.69-22.63a14.652,14.652,0,0,1,4.386,10.687v7.209H212.2v-7.411a5.292,5.292,0,0,0-1.613-3.882,5.292,5.292,0,0,0-3.882-1.613,5.209,5.209,0,0,0-3.857,1.613,5.334,5.334,0,0,0-1.588,3.882V22.438a5.422,5.422,0,0,0,5.445,5.445,5.334,5.334,0,0,0,3.882-1.588,5.209,5.209,0,0,0,1.613-3.857V9.987H206.9V.459h15.174V22.539A15.06,15.06,0,0,1,207,37.613Zm23.341-.807V-26.411h27.122v9.528H239.872V.408h12.855V9.987H239.872V27.278h17.594v9.528Zm59.638,0H264.019V-26.361h9.528V27.328h16.434Zm6.554,0V-26.411h27.122v9.528H306.063V.408h12.855V9.987H306.063V27.278h17.594v9.528Zm65.183-15.729A17.766,17.766,0,0,1,358.29,32.37a12.347,12.347,0,0,1-6.554,4.487,17.867,17.867,0,0,1-5.293.706,14.982,14.982,0,0,1-9.276-2.773,15.509,15.509,0,0,1-4.865-6.176,24.917,24.917,0,0,1-2.092-8.948l9.074-.655q.605,5.495,2.924,7.965a4.887,4.887,0,0,0,3.932,1.764,5.911,5.911,0,0,0,4.991-3.075,7.633,7.633,0,0,0,.958-4.184q0-3.932-3.579-7.814l-8.469-8.016a36.148,36.148,0,0,1-6.7-8.217,18.987,18.987,0,0,1-2.117-8.873q0-8.621,5.8-13.057a14.416,14.416,0,0,1,8.873-2.672A16.126,16.126,0,0,1,354.61-24.9a13.1,13.1,0,0,1,4.562,4.94,18.283,18.283,0,0,1,2.092,7.31l-9.125,1.664a11,11,0,0,0-2.218-6.049,4.657,4.657,0,0,0-3.781-1.563,4.355,4.355,0,0,0-3.983,2.319,8.941,8.941,0,0,0-1.109,4.638q0,4.336,3.73,8.822a31.518,31.518,0,0,0,4.235,4.033Q352.342,3.988,353.4,5.1a32.328,32.328,0,0,1,5.445,6.957,26.66,26.66,0,0,1,1.462,2.974A17.32,17.32,0,0,1,361.718,21.077Z" transform="translate(-0.665 27.167)" fill="none"/>
    </clipPath>
    <linearGradient id="linear-gradient" x1="0.01" y1="0.03" x2="0.01" y2="36.601" gradientUnits="objectBoundingBox">
      <stop offset="0"/>
      <stop offset="0" stop-color="#575757"/>
      <stop offset="0.1" stop-color="#575757"/>
      <stop offset="0.2" stop-color="#575758"/>
      <stop offset="0.3" stop-color="#575758"/>
      <stop offset="0.4" stop-color="#575758"/>
      <stop offset="0.5" stop-color="#575759"/>
      <stop offset="0.6" stop-color="#575759"/>
      <stop offset="0.7" stop-color="#575759"/>
      <stop offset="0.8" stop-color="#575759"/>
      <stop offset="0.9" stop-color="#57575a"/>
      <stop offset="1" stop-color="#57575a"/>
      <stop offset="1"/>
    </linearGradient>
    <linearGradient id="linear-gradient-2" x1="0.5" y1="0.03" x2="0.5" y2="0.47" gradientUnits="objectBoundingBox">
      <stop offset="0" stop-color="#575757"/>
      <stop offset="0.1" stop-color="#575757"/>
      <stop offset="0.2" stop-color="#575758"/>
      <stop offset="0.3" stop-color="#575758"/>
      <stop offset="0.4" stop-color="#575758"/>
      <stop offset="0.5" stop-color="#575759"/>
      <stop offset="0.6" stop-color="#575759"/>
      <stop offset="0.7" stop-color="#575759"/>
      <stop offset="0.8" stop-color="#575759"/>
      <stop offset="0.9" stop-color="#57575a"/>
      <stop offset="1" stop-color="#57575a"/>
    </linearGradient>
    <clipPath id="clip-path-2">
      <path id="Path_10" data-name="Path 10" d="M14.307,56.6H3.941V-12.177H18.8l9.653,49.307,9.269-49.307H52.041V56.6H41.675V13.381L32.68,56.6H24.344L14.307,13.491ZM77.545-13A15.822,15.822,0,0,1,89.2-8.174,15.894,15.894,0,0,1,94,3.454V40.969A16.432,16.432,0,0,1,77.545,57.423,15.732,15.732,0,0,1,65.917,52.6a15.94,15.94,0,0,1-4.772-11.627V3.454A15.822,15.822,0,0,1,65.972-8.2,15.83,15.83,0,0,1,77.545-13ZM83.194,3.234a5.712,5.712,0,0,0-1.728-4.2,5.712,5.712,0,0,0-4.2-1.728A5.8,5.8,0,0,0,73.047-.961a5.667,5.667,0,0,0-1.755,4.2V40.859a5.667,5.667,0,0,0,1.755,4.2,5.8,5.8,0,0,0,4.223,1.728,5.9,5.9,0,0,0,5.923-5.923Zm36.253,54.133a16.292,16.292,0,0,1-16.4-16.344V-12.122h10.147V40.914a5.668,5.668,0,0,0,1.755,4.2,5.8,5.8,0,0,0,4.223,1.728,5.9,5.9,0,0,0,5.923-5.923V-12.122h10.8V41.024a15.617,15.617,0,0,1-4.826,11.627A16.035,16.035,0,0,1,119.447,57.368ZM156.8-12.177,170.509,34V-12.177h10.366V56.6H169.741l-14.26-44.042V56.6H145.115V-12.177ZM200.236-1.757H189.211V-12.122h32.359V-1.757H210.6V56.6H200.236ZM233.8,40.8l-2.523,15.8h-10.8l11.682-68.722h14.26L257.934,56.6h-10.86l-2.468-15.8Zm5.43-37.186-3.839,27.094h7.678ZM277.02,56.6H266.654V-12.122H277.02Zm20.951-68.777L311.683,34V-12.177h10.366V56.6H310.915l-14.26-44.042V56.6H286.289V-12.177Zm67.022,51.665a19.329,19.329,0,0,1-3.73,12.286,13.434,13.434,0,0,1-7.13,4.881,19.439,19.439,0,0,1-5.759.768,16.3,16.3,0,0,1-10.092-3.017,16.873,16.873,0,0,1-5.293-6.719,27.108,27.108,0,0,1-2.276-9.735l9.872-.713q.658,5.978,3.181,8.666a5.317,5.317,0,0,0,4.278,1.92,6.431,6.431,0,0,0,5.43-3.346,8.3,8.3,0,0,0,1.042-4.552q0-4.278-3.894-8.5L341.41,22.7a39.327,39.327,0,0,1-7.295-8.94,20.658,20.658,0,0,1-2.3-9.653q0-9.379,6.307-14.205A15.684,15.684,0,0,1,347.772-13a17.545,17.545,0,0,1,9.488,2.468,14.258,14.258,0,0,1,4.964,5.375A19.891,19.891,0,0,1,364.5,2.8l-9.927,1.81a11.966,11.966,0,0,0-2.413-6.582,5.067,5.067,0,0,0-4.113-1.7,4.738,4.738,0,0,0-4.333,2.523,9.727,9.727,0,0,0-1.207,5.046q0,4.717,4.059,9.6a34.291,34.291,0,0,0,4.607,4.388q3.62,3.017,4.772,4.223a35.172,35.172,0,0,1,5.923,7.569,29,29,0,0,1,1.59,3.236A18.844,18.844,0,0,1,364.994,39.488Z" transform="translate(-3.941 13)" fill="none"/>
    </clipPath>
    <linearGradient id="linear-gradient-3" x1="0.056" y1="0.536" x2="0.056" y2="37.107" gradientUnits="objectBoundingBox">
      <stop offset="0"/>
      <stop offset="0" stop-color="#49597a"/>
      <stop offset="0.1" stop-color="#465676"/>
      <stop offset="0.2" stop-color="#445372"/>
      <stop offset="0.3" stop-color="#414f6d"/>
      <stop offset="0.4" stop-color="#3f4c69"/>
      <stop offset="0.5" stop-color="#3c4965"/>
      <stop offset="0.6" stop-color="#394661"/>
      <stop offset="0.7" stop-color="#37435d"/>
      <stop offset="0.8" stop-color="#343f58"/>
      <stop offset="0.9" stop-color="#323c54"/>
      <stop offset="1" stop-color="#2f3950"/>
      <stop offset="1"/>
    </linearGradient>
    <linearGradient id="linear-gradient-4" x1="0.507" y1="0.536" x2="0.507" y2="0.975" gradientUnits="objectBoundingBox">
      <stop offset="0" stop-color="#49597a"/>
      <stop offset="0.1" stop-color="#465676"/>
      <stop offset="0.2" stop-color="#445372"/>
      <stop offset="0.3" stop-color="#414f6d"/>
      <stop offset="0.4" stop-color="#3f4c69"/>
      <stop offset="0.5" stop-color="#3c4965"/>
      <stop offset="0.6" stop-color="#394661"/>
      <stop offset="0.7" stop-color="#37435d"/>
      <stop offset="0.8" stop-color="#343f58"/>
      <stop offset="0.9" stop-color="#323c54"/>
      <stop offset="1" stop-color="#2f3950"/>
    </linearGradient>
  </defs>
  <g id="Group_9" data-name="Group 9" transform="translate(-0.665 27.167)">
    <g id="Group_4" data-name="Group 4" transform="translate(0.665 -27.167)" clip-path="url(#clip-path)">
      <g id="Group_2" data-name="Group 2" transform="translate(-3.497 -4.378)" opacity="0">
        <g id="Group_1" data-name="Group 1" transform="translate(0 0)">
          <path id="Path_5" data-name="Path 5" d="M-.665-.833H367.382V146.386H-.665Z" transform="translate(0.665 0.833)" fill="url(#linear-gradient)"/>
        </g>
      </g>
      <g id="Group_3" data-name="Group 3" transform="translate(-3.497 -4.378)">
        <path id="Path_6" data-name="Path 6" d="M-.665-.833H367.382V146.386H-.665Z" transform="translate(0.665 0.833)" fill="url(#linear-gradient-2)"/>
      </g>
    </g>
    <g id="Group_8" data-name="Group 8" transform="translate(0.665 44.322)" clip-path="url(#clip-path-2)">
      <g id="Group_6" data-name="Group 6" transform="translate(-22.543 -85.804)" opacity="0">
        <g id="Group_5" data-name="Group 5">
          <path id="Path_8" data-name="Path 8" d="M-3.941-15H396.477V145.167H-3.941Z" transform="translate(3.941 15)" fill="url(#linear-gradient-3)"/>
        </g>
      </g>
      <g id="Group_7" data-name="Group 7" transform="translate(-22.543 -85.804)">
        <path id="Path_9" data-name="Path 9" d="M-3.941-15H396.477V145.167H-3.941Z" transform="translate(3.941 15)" fill="url(#linear-gradient-4)"/>
      </g>
    </g>
  </g>
</svg>
